<svg width="120" height="30" viewBox="0 0 120 30" fill="none" xmlns="http://www.w3.org/2000/svg">
<g clip-path="url(#clip0_10_40)">
<path fill-rule="evenodd" clip-rule="evenodd" d="M22.24 17.7621L16.238 7.91305H11.906L11.904 22.0391H16.212V12.1891L22.242 22.0391H26.54V7.91305H22.234L22.24 17.7621ZM56.384 12.6651V11.2681H54.117V9.36705H49.928L49.932 11.2701H47.655V12.6651H49.93L49.928 22.0391H54.124L54.117 12.6651H56.384ZM28.934 22.0391H33.117V12.6481L28.934 12.6441V22.0391ZM28.923 10.7981H33.117V7.90805H28.923V10.7981ZM102.273 12.0071C98.896 12.0071 96.154 14.3651 96.154 17.2771C96.154 20.1901 98.896 22.5491 102.273 22.5491C105.651 22.5491 108.387 20.1901 108.387 17.2771C108.387 14.3651 105.651 12.0071 102.273 12.0071ZM103.949 19.2541C103.949 20.7511 103.078 21.3681 102.239 21.3681C101.402 21.3681 100.527 20.7511 100.527 19.2541V17.2291L100.529 15.2731C100.529 13.7831 101.403 13.1661 102.239 13.1661C103.074 13.1661 103.949 13.7831 103.949 15.2731C103.949 15.8391 103.949 16.8921 103.954 17.2681C103.954 17.2941 103.949 18.6881 103.949 19.2541ZM90.663 13.1101C89.995 12.7291 89.288 12.3601 88.296 12.2721C85.278 12.0051 82.976 14.7091 82.976 17.1891C82.9511 18.1588 83.2081 19.1149 83.7157 19.9415C84.2234 20.7681 84.9599 21.4297 85.836 21.8461C87.246 22.5121 89.051 22.5141 90.653 21.4941L90.655 22.0371H94.79V7.91305H90.663V13.1101ZM90.695 17.2941V18.9621C90.695 20.4121 89.704 20.7901 89.053 20.7901C88.387 20.7901 87.413 20.4121 87.413 18.9621V15.6161C87.413 14.1611 88.387 13.7931 89.053 13.7931C89.703 13.7931 90.693 14.1611 90.693 15.6161L90.695 17.2941ZM42.917 12.2121C41.6662 12.2513 40.4753 12.7567 39.578 13.6291C39.573 13.3951 39.578 12.6411 39.578 12.6411L35.418 12.6441L35.426 22.0341H39.578L39.573 15.8661C39.573 15.0481 40.422 14.1381 41.559 14.1381C42.699 14.1381 43.471 15.0481 43.471 15.8661V22.0341H47.634C47.634 22.0341 47.629 17.5861 47.634 16.9251C47.655 13.2071 44.481 12.1671 42.917 12.2121ZM76.929 12.2121C75.6778 12.2509 74.4864 12.7564 73.589 13.6291C73.584 13.3951 73.589 12.6411 73.589 12.6411L69.436 12.6441L69.434 22.0341H73.589L73.584 15.8661C73.584 15.0481 74.434 14.1381 75.574 14.1381C76.713 14.1381 77.484 15.0481 77.484 15.8661V22.0341H81.643C81.643 22.0341 81.638 17.5861 81.643 16.9251C81.663 13.2071 78.491 12.1671 76.929 12.2121ZM68.169 17.3821C68.169 14.4691 65.396 12.0571 61.992 12.0571C58.591 12.0571 55.83 14.4161 55.83 17.3291C55.83 20.2411 58.59 22.6021 61.992 22.6021C64.817 22.6021 67.202 20.9651 67.932 18.7491L63.758 18.7531C63.758 18.7531 63.763 18.7931 63.763 19.3231C63.763 21.0391 62.65 21.4191 62.03 21.4191C61.41 21.4191 60.279 21.0391 60.279 19.3221C60.279 18.8071 60.284 17.3821 60.284 17.3821C60.284 17.3821 68.169 17.3851 68.169 17.3821ZM60.558 14.0751C60.887 13.4971 61.486 13.2251 62.03 13.2191C62.3288 13.2209 62.622 13.3009 62.8804 13.4511C63.1388 13.6012 63.3534 13.8163 63.503 14.0751C63.766 14.5471 63.78 15.0981 63.773 15.9181H60.283C60.275 15.0981 60.293 14.5481 60.558 14.0751ZM110.053 9.65805C110.053 9.19705 109.717 8.96405 109.042 8.96405H108.11V11.3741H108.689V10.3881H108.97L109.425 11.3741H110.065L109.535 10.2981C109.861 10.2121 110.053 9.97505 110.053 9.65805ZM108.97 10.0351H108.689V9.33505H108.939C109.286 9.33505 109.457 9.44205 109.457 9.69405C109.457 9.93305 109.3 10.0351 108.97 10.0351ZM108.988 8.02505C107.806 8.02505 106.842 9.00005 106.842 10.2001C106.842 11.4001 107.806 12.3741 108.988 12.3741C110.171 12.3741 111.127 11.4001 111.127 10.2001C111.127 9.00005 110.171 8.02505 108.988 8.02505ZM108.988 11.9551C108.759 11.9536 108.532 11.9071 108.321 11.8181C108.11 11.7291 107.919 11.5994 107.758 11.4365C107.597 11.2735 107.47 11.0804 107.384 10.8683C107.297 10.6561 107.254 10.4291 107.255 10.2001C107.255 9.22805 108.031 8.44005 108.988 8.44005C109.944 8.44005 110.72 9.22805 110.72 10.2001C110.72 11.1701 109.944 11.9551 108.988 11.9551ZM104.318 5.28919e-05H15.68C6.3 -0.0219471 0 6.82205 0 15.0251C0 23.2321 6.286 29.9961 15.696 30.0001H104.304C113.717 29.9961 120 23.2321 120 15.0251C120 6.82205 113.7 -0.0219471 104.318 5.28919e-05ZM104.278 26.3201H15.724C8.246 26.3501 3.703 21.2551 3.703 15.0061C3.703 8.75605 8.273 3.70605 15.724 3.69005H104.278C111.726 3.70605 116.296 8.75705 116.296 15.0061C116.296 21.2561 111.754 26.3501 104.278 26.3201Z" fill="#F4D993"/>
</g>
<defs>
<clipPath id="clip0_10_40">
<rect width="120" height="30" fill="white"/>
</clipPath>
</defs>
</svg>
