<svg width="851" height="365" viewBox="0 0 851 365" fill="none" xmlns="http://www.w3.org/2000/svg">
<path d="M291 96C197.4 46 117.833 32.1667 89 36C56.5 40.3208 30.5 59 15 86.5C-69 328 243.5 373.833 380 362C580.4 329.6 695.833 195.833 728.5 133C792.5 151.4 839.5 115 850.5 82C830 77.5 829.5 91.5 808.5 82C782 60 753.5 68 742.5 74.5C736.167 60.8333 728.5 36 703 36C686.479 36 686.5 3.5 671.414 0.5C642.245 57.6374 679.711 105.314 703 122.5C651 169.5 549 201.5 478 190C407 178.5 408 158.5 291 96Z" stroke="black" stroke-linejoin="round"/>
</svg>
