<svg width="30" height="35" viewBox="0 0 30 35" fill="none" xmlns="http://www.w3.org/2000/svg">
<path d="M26.7857 2.14282H3.21429C1.43973 2.14282 0 3.58255 0 5.35711V28.9285C0 30.7031 1.43973 32.1428 3.21429 32.1428H26.7857C28.5603 32.1428 30 30.7031 30 28.9285V5.35711C30 3.58255 28.5603 2.14282 26.7857 2.14282ZM16.3259 25.5401C16.3259 28.4598 14.6116 29.7924 12.1138 29.7924C9.85714 29.7924 8.55134 28.6272 7.8817 27.2142L10.1786 25.8281C10.6205 26.6116 11.0223 27.2745 11.9933 27.2745C12.9174 27.2745 13.5067 26.9129 13.5067 25.5V15.9174H16.3259V25.5401ZM22.9955 29.7924C20.3772 29.7924 18.683 28.5468 17.8594 26.9129L20.1562 25.587C20.7589 26.5714 21.5491 27.3013 22.9353 27.3013C24.1004 27.3013 24.8504 26.7187 24.8504 25.9084C24.8504 24.9442 24.0871 24.6026 22.7946 24.0334L22.0915 23.7321C20.0558 22.8683 18.7098 21.7767 18.7098 19.4799C18.7098 17.3638 20.3237 15.7567 22.8348 15.7567C24.6295 15.7567 25.9152 16.3794 26.8393 18.0134L24.6429 19.4196C24.1607 18.5558 23.6384 18.2142 22.8281 18.2142C22.0045 18.2142 21.4821 18.7366 21.4821 19.4196C21.4821 20.2634 22.0045 20.6049 23.2165 21.1339L23.9196 21.4352C26.317 22.4598 27.6629 23.5111 27.6629 25.8683C27.6629 28.3995 25.6674 29.7924 22.9955 29.7924Z" fill="#FF481F"/>
</svg>
